<svg width="283" height="283" viewBox="0 0 283 283" fill="none" xmlns="http://www.w3.org/2000/svg"><path d="M21.008 186.157c3.577-1.977 4.97 1.248 2.652 1.905-5.125 1.452-3.517 8.46 1.608 9.81 3.678.97 13.775-.358 16.279-.988.5-.22 5.38-.42 10.406-.472 5.027-.052 13.028 2.106 15.16 2.418 2.133.312 5.61.936 7.768.962 2.16.026 5.7-1.352 5.765-1.365.063-.013.24-.208.66-.702.419-.494 1.802-1.47 1.903-1.456.102.012.254.363.33.987.076.624-.253 1.066-.253 1.066s1.967-.52 1.967-.21c0 .314-.52 1.224-.571 1.315-.05.09 2.032 1.69 2.552 2.43.52.742.318.703.47 1.574.152.87 1.485 3.08 1.536 3.302.05.22.013.26-.203.442-.216.182-.178.078-.432.325-.254.248-1.168 1.38-2.233 1.9-1.067.52-1.245.077-2.083-.417-.837-.494-4.747.13-5.483.702-.602.468-1.901 1.737-2.354 2.183l-.16.157s-.202.313-.456 1.51c-.254 1.194-.152 2.39.153 4.367.304 1.976 3.477 6.55 3.96 6.94.482.39 1.345.807 1.954 1.484.61.676.077 1.09-.583 1.3-.66.207-2.285-.13-2.792-.34-.508-.207-.762-1.662-2.437-2.858-1.676-1.196-4.316-3.38-4.722-4.473-.406-1.092-.762-4.107-.762-4.107s-.355.83-1.472 2.235c-1.118 1.404-3.707 3.744-3.707 4.733 0 .987.305 2.6.66 3.223.356.623.864.675 1.32.83l.232.078c.392.132.8.305 1.14.912.406.727-.051.936-.813.936-.761 0-1.828.364-3.148-.156s-3.757-4.94-4.315-6.033c-.558-1.09.66-3.12 1.169-4.056.506-.935 1.217-2.182 1.217-2.182s-4.67.052-7.108-.572c-2.438-.624-5.235-.832-5.235-.832s-.203 1.144-.61 2.808c-.406 1.664-2.335 3.588-2.538 4.212-.203.624 1.117 1.924 1.878 2.756.762.832 2.285 1.404 2.894 1.82.609.416 1.32 1.092.913 1.924-.406.832-.761.104-1.472.26-.71.156-2.487.416-3.705.156-1.219-.26-1.27-1.82-2.894-3.224-1.624-1.404-3.3-2.964-3.147-3.9.152-.936.355-5.148.304-5.408-.05-.26-2.132 1.456-4.366 2.548-2.233 1.092-6.802 2.21-7.082 2.964-.279.754-1.193 4.24-1.04 5.278.152 1.04.431 1.638.71 2.184l.119.232c.16.322.135.362-.118.6-.306.286-2.515.026-2.997-.65-.482-.676-1.37-4.784-1.04-5.694.33-.91 2.106-6.89 2.766-7.41.66-.52 3.046-1.976 4.366-5.252 1.046-2.595.721-6.593 1.172-8.866-7.25-.07-16.448.688-17.64-9.57-.332-2.863 1.515-5.207 3.99-6.575zM161.258 53.77l64.41 156.067c3.137 7.597 8.71 11.396 16.72 11.396h.992v5.326h-80.883v-5.327c15.03-.496 22.543-4.047 22.543-10.653 0-1.816-.33-3.51-.99-5.078l-11.89-28.612h-58.093l-8.918 22.79c-1.157 2.973-1.735 5.863-1.735 8.67 0 8.093 6.606 12.387 19.818 12.883v5.326l-35.686.008c2.307-6.66 7.462-19.772 7.855-20.83.506-1.368 1.25-3.252 1.238-4.637-.012-1.383.404-3.437-.364-6.052-.768-2.616-1.682-4.856-1.816-6.275-.133-1.42.297-5.162.44-7.55.144-2.39.418-6.628.717-6.932.3-.303.202-.552 1.023-.608.821-.056 1.284-.225 2.464-.108 1.18.116 2.51-.27 3.513-.315 1.002-.046 2.067.028 3.394-.7 1.328-.73 1.56-1.373 2.084-1.977.525-.603 1.182-1.66 1.4-2.24.217-.58.344-.944-.75-1.188-1.097-.244-2.853-1.116-4.067-1.358-1.214-.242-2.685-.55-3.282-1.106-.596-.555-.867-1.23-1.293-1.652-.427-.423-.665-.644-1.632-.967-.967-.322-2.62-1.312-3.214-1.466-.594-.155-1.355-.323-1.518-.653a93.695 93.695 0 0 1-1.542-3.526c-.406-1.01-1.194-2.725-1.497-2.69-.305.038-.592 2.697-1.226 4.285-.635 1.587-1.55 3.07-1.586 3.887-.035.815-.825 2.1-1.444 3.133-.619 1.03-2.711 4.92-3.528 7.72-.816 2.802-2.487 8.936-3.528 9.977-1.043 1.04-6.93 4.722-8.48 5.787-.463.318-.823.57-1.146.786l55.613-135.54h35.884zm-19.074 50.536-24.277 62.675h50.164l-25.886-62.674z" fill="#59443F"/></svg>